# xmcd
#
# Track frame offsets: 
#        150
#        36553
#        53166
#        66456
#        79920
#        103765
#        125498
#        143365
#        155632
#        166841
#        196272
#        205677
#        223526
#        237178
#        251085
#        266616
#        280799
#
# Disc length: 4001 seconds
#
# Revision: 1
# Processed by: cddbd v1.5.2PL0 Copyright (c) Steve Scherf et al.
# Submitted via: ExactAudioCopy v1.1
#
DISCID=fa0f9f11
DTITLE=The 13th Floor Elevators - Easter Everywhere (stereo)
DYEAR=1967
DGENRE=Psychedelic Rock
TTITLE0=Slip Inside This House (stereo)
TTITLE1=Slide Machine (alt. mix) (stereo)
TTITLE2=She Lives (In A Time Of Her Own) (alt. mix) (stereo)
TTITLE3=Nobody To Love (stereo)
TTITLE4=(It's All Over Now) Baby Blue (stereo)
TTITLE5=Earthquake (stereo)
TTITLE6=Dust (alt. mix) (stereo)
TTITLE7=(I've Got) Levitation (alt. mix) (stereo)
TTITLE8=I Had To Tell You (stereo)
TTITLE9=Postures (Leave Your Body Behind) (stereo)
TTITLE10=Fire In My Bones (stereo)
TTITLE11=Dust (alt. mix 2) (stereo)
TTITLE12=Roky Erickson and Clementine Hall - Right Track Now (mono)
TTITLE13=Roky Erickson and Clementine Hall - I've Seen Your Face Before 
TTITLE13=(Splash 1) (mono)
TTITLE14=Before You Accuse Me (unedited) (mono)
TTITLE15=Levitation (backing track - take 1) (mono)
TTITLE16=Levitation (backing track - take 2) (mono)
EXTD=
EXTT0=
EXTT1=
EXTT2=
EXTT3=
EXTT4=
EXTT5=
EXTT6=
EXTT7=
EXTT8=
EXTT9=
EXTT10=
EXTT11=
EXTT12=
EXTT13=
EXTT14=
EXTT15=
EXTT16=
PLAYORDER=
